<?xml version="1.0" encoding="UTF-8"?>
<svg xmlns="http://www.w3.org/2000/svg" viewBox="0 0 384 384">
<style>path {fill:#2efd81;}</style>
      <path d="m0,136.5c0-1.75,0-3.5,0-5.25,7.22-13.39,14.43-26.78,21.72-40.3-11.57-1.63-15.47-9.3-10.07-19.1,11.42-20.74,22.93-41.44,34.25-62.23,2.19-4.02,4.7-7.51,8.85-9.62h6c4.22,1.8,6.81,5.07,8.92,9.08,4.47,8.51,9.23,16.86,13.87,25.27,7.06,12.78,14.17,25.53,21.15,38.36,4.66,8.58.65,16.49-8.94,17.96-.46.07-.92.18-1.64.32.67,1.29,1.22,2.39,1.82,3.47,5.9,10.71,11.84,21.4,17.71,32.14,5.23,9.57.18,18.12-10.72,18.16-9.87.04-19.74,0-29.61,0-1.31,0-2.62,0-3.94,0v33.43h111.17v-33.43c-11.32,0-22.42.04-33.51-.01-10.95-.05-15.95-8.53-10.69-18.15,5.93-10.84,11.93-21.64,17.89-32.46.56-1.01,1.02-2.08,1.57-3.22-11.55-1.59-15.48-9.28-10.07-19.1,11.5-20.88,23.09-41.71,34.5-62.64,2.15-3.94,4.67-7.27,8.8-9.2h6c4.11,1.94,6.7,5.22,8.79,9.2,4.77,9.05,9.82,17.95,14.77,26.91,6.75,12.24,13.58,24.43,20.24,36.72,4.67,8.61.57,16.49-9.1,17.85-.44.06-.88.18-1.61.34,6.63,12.02,13.16,23.79,19.61,35.61,5.26,9.64.25,18.08-10.73,18.13-9.87.04-19.74,0-29.61,0-1.31,0-2.63,0-3.98,0v35.83c35.26,9.18,59.32,30.53,71.9,65.4H0c0-1.75,0-3.5,0-5.25.23-.82.57-1.62.68-2.46,2.07-14.48,7.81-27.26,17.75-38.06,7.76-8.44,17.26-14.26,27.94-18.06v-37.4c-10.71,0-21.18-.24-31.63.08-6.84.21-11.84-2.01-14.74-8.36Z"/>
      <path d="m0,375.75c0-16.75,0-33.5,0-50.25.97-.2,1.93-.5,2.91-.57,13.76-1.03,26.84.94,38.86,8.33,10.63,6.54,21.46,6.56,32.23.1,1.82-1.09,3.72-2.05,5.54-3.13,8.47-5.04,17.59-6.6,27.36-5.69,8.95.84,16.9,4.23,24.46,8.74,10.82,6.46,21.45,6.23,32.16-.33,19.04-11.67,38.16-11.79,57.24-.02,11.19,6.91,22.33,7.07,33.45-.15,1.15-.75,2.37-1.39,3.54-2.11,10.57-6.45,21.95-7.58,33.94-5.51,7.35,1.27,13.53,4.99,19.75,8.67,9.43,5.58,18.89,5.71,28.48.51,1.87-1.01,3.62-2.3,5.59-3.02,5.81-2.13,11.57-4.86,17.6-5.84,6.83-1.11,13.92-.57,20.9-.75v51c-1.79,3.71-4.55,6.45-8.25,8.25H8.25c-3.71-1.79-6.45-4.55-8.25-8.25Z"/>
      <path d="m384,157.5c-2.34,6.78-7.29,9.19-14.21,9.05-10.61-.21-21.22-.06-32.42-.06,0,1.5,0,2.81,0,4.11,0,9.37.19,18.75-.1,28.12-.11,3.64.89,5.34,4.4,6.77,17.18,6.97,29.65,19.06,37.49,35.88.62,1.33,1.08,2.74,1.75,4.44-1.26.07-2.2.17-3.14.17-25.24,0-50.49,0-75.73.03-2.02,0-3.38-.14-4.11-2.56-4.47-14.69-11.02-28.36-20.38-40.61-.28-.36-.4-.83-1-2.12h38.06v-34.06c-1.2-.05-2.51-.16-3.81-.17-9.87-.01-19.75.02-29.62-.02-10.93-.04-16.05-8.57-10.84-18.12,5.74-10.52,11.58-20.99,17.37-31.48.71-1.3,1.4-2.61,2.23-4.17-.89-.16-1.46-.27-2.04-.36-9.18-1.56-13.18-9.39-8.75-17.59,6.34-11.76,12.88-23.4,19.33-35.1,5.67-10.27,11.39-20.52,16.99-30.83,2.33-4.29,5.55-7.07,10.59-7.08,5.06-.01,8.27,2.81,10.61,7.06,11.6,21.11,23.26,42.2,34.9,63.29,6.23,11.29,3.35,17.88-9.18,20.71,7.21,13.41,14.41,26.79,21.61,40.18v4.5Z"/>
      <path d="m0,268.5h384v33.75c-4.37-.02-8.73-.04-13.1-.06-9.18-.04-17.99,1.74-25.7,6.83-13.11,8.65-25.87,8.68-38.64-.48-.2-.14-.44-.24-.65-.37-10.71-6.4-22.36-8.16-34.28-5.26-6.29,1.53-12.39,4.55-18.03,7.85-10.76,6.29-21.2,6.52-31.88.23-1.29-.76-2.6-1.49-3.9-2.24-9.97-5.68-20.59-8.04-32.05-6.61-8.5,1.06-16.03,4.53-23.26,8.84-9.85,5.87-19.79,6.18-29.84.49-2.5-1.41-5.03-2.76-7.59-4.07-11-5.6-22.66-7.41-34.52-4.19-5.91,1.6-11.45,4.87-16.86,7.9-10.67,5.98-21.12,5.97-31.65-.13-1.4-.81-2.81-1.62-4.25-2.37-11.95-6.28-24.64-7.55-37.81-5.62v-34.5Z"/>
</svg>